nColumns=19
nRows=48
DataType=double
version=3
OpenSimVersion=4.1
endheader
time	ground_force_1_vx	ground_force_1_vy	ground_force_1_vz	ground_force_1_px	ground_force_1_py	ground_force_1_pz	ground_force_1_mx	ground_force_1_my	ground_force_1_mz	ground_force_2_vx	ground_force_2_vy	ground_force_2_vz	ground_force_2_px	ground_force_2_py	ground_force_2_pz	ground_force_2_mx	ground_force_2_my	ground_force_2_mz
1.46	0	0	0	0.264817	0	-0.219036	0	0	0	0	0	0	1.22942	0	-0.397502	0	0	0
1.465	0	0	0	0.288585	0	-0.217633	0	0	0	-69.8662	122.711	-8.13631	1.14556	-0	-0.410506	0	-4.63046	0
1.47	0	0	0	0.312835	0	-0.215372	0	0	0	-150.68	333.131	19.5404	1.02137	0	-0.435281	0	-3.3676	0
1.475	0	0	0	0.337335	0	-0.213678	0	0	0	-246.807	639.61	73.3936	1.01748	0	-0.417275	0	3.87387	0
1.48	0	0	0	0.361903	0	-0.21259	0	0	0	-329.079	1004.06	150.162	1.00773	0	-0.402275	0	14.0386	0
1.485	0	0	0	0.386325	0	-0.211719	0	0	0	-369.154	1386.21	221.028	0.992476	0	-0.390163	0	14.3916	0
1.49	0	0	0	0.410387	0	-0.210679	0	0	0	-371.125	1781.36	251.947	0.968583	0	-0.380144	0	-4.15885	0
1.495	0	0	0	0.433986	0	-0.209213	0	0	0	-363.574	2186.41	223.262	0.937925	0	-0.371521	0	-30.7963	0
1.5	0	0	0	0.457026	0	-0.208212	0	0	0	-352.392	2565.03	133.449	0.911685	0	-0.364891	0	-43.1168	0
1.505	0	0	0	0.478915	0	-0.209196	0	0	0	-338.613	2869.47	4.87812	0.892035	0	-0.360397	0	-33.3019	0
1.51	0	0	0	0.501724	0	-0.208855	0	0	0	-321.051	3064.19	-126.528	0.872907	0	-0.357999	0	-11.3196	0
1.515	0	0	0	0.524473	0	-0.209726	0	0	0	-283.296	3137.9	-220.758	0.848758	0	-0.35712	0	8.1532	0
1.52	0	0	0	0.548762	0	-0.210957	0	0	0	-212.141	3113.97	-254.235	0.816352	0	-0.357084	0	18.1984	0
1.525	0	0	0	0.574797	0	-0.212623	0	0	0	-104.753	3033.41	-226.682	0.778673	0	-0.356894	0	18.7751	0
1.53	0	0	0	0.603685	0	-0.214551	0	0	0	22.2368	2922.23	-164.715	0.742065	0	-0.356074	0	14.0509	0
1.535	0	0	0	0.63565	0	-0.216733	0	0	0	146.091	2772.45	-104.645	0.709212	0	-0.355111	0	7.98862	0
1.54	0	0	0	0.671351	0	-0.218753	0	0	0	256.032	2565.65	-65.6803	0.679271	0	-0.354573	0	0.089583	0
1.545	0	0	0	0.708406	0	-0.220478	0	0	0	352.418	2294.77	-42.0099	0.65022	0	-0.354403	0	-8.63003	0
1.55	0	0	0	0.748417	0	-0.222447	0	0	0	434.11	1961	-20.3923	0.61737	0	-0.354773	0	-13.4773	0
1.555	0	0	0	0.790796	0	-0.223861	0	0	0	489.6	1568.51	3.22876	0.569487	0	-0.356875	0	-14.7266	0
1.56	0	0	0	0.835138	0	-0.225124	0	0	0	511.002	1136.06	21.8729	0.488055	0	-0.36278	0	-17.757	0
1.565	0	0	0	0.880178	0	-0.225382	0	0	0	493.249	712.773	26.2901	0.342219	0	-0.374991	0	-24.5975	0
1.57	0	0	0	0.926865	0	-0.225349	0	0	0	433.008	363.321	9.82433	0.08517	0	-0.396862	0	-22.025	0
1.575	0	0	0	0.973112	0	-0.225357	0	0	0	339.037	127.127	-29.0742	0.09121	-0	-0.393548	0	28.558	0
1.58	0	0	0	1.01869	0	-0.225164	0	0	0	0	0	0	0.309906	0	-0.369903	0	0	0
1.585	0	0	0	1.06212	0	-0.226512	0	0	0	0	0	0	0.280437	0	-0.371522	0	0	0
1.59	0	0	0	1.10444	0	-0.229573	0	0	0	0	0	0	0.250709	0	-0.371633	0	0	0
1.595	0	0	0	1.14372	0	-0.23345	0	0	0	0	0	0	0.224526	0	-0.371291	0	0	0
1.6	0	0	0	1.18058	0	-0.238316	0	0	0	0	0	0	0.199572	0	-0.365536	0	0	0
1.605	0	0	0	1.21471	0	-0.24401	0	0	0	0	0	0	0.174174	0	-0.362894	0	0	0
1.61	0	0	0	1.24608	0	-0.249998	0	0	0	0	0	0	0.154438	0	-0.360562	0	0	0
1.615	0	0	0	1.27431	0	-0.25597	0	0	0	0	0	0	0.139687	0	-0.35784	0	0	0
1.62	0	0	0	1.29968	0	-0.261902	0	0	0	0	0	0	0.127509	0	-0.355057	0	0	0
1.625	0	0	0	1.32115	0	-0.26714	0	0	0	0	0	0	0.114685	0	-0.353649	0	0	0
1.63	0	0	0	1.33866	0	-0.271514	0	0	0	0	0	0	0.103324	0	-0.353891	0	0	0
1.635	0	0	0	1.35178	0	-0.27487	0	0	0	0	0	0	0.094193	0	-0.354636	0	0	0
1.64	0	0	0	1.36079	0	-0.277298	0	0	0	0	0	0	0.088053	0	-0.356743	0	0	0
1.645	0	0	0	1.36545	0	-0.278668	0	0	0	0	0	0	0.085621	0	-0.358098	0	0	0
1.65	0	0	0	1.3659	0	-0.278912	0	0	0	0	0	0	0.08705	0	-0.360241	0	0	0
1.655	0	0	0	1.36256	0	-0.278266	0	0	0	0	0	0	0.092005	0	-0.36242	0	0	0
1.66	0	0	0	1.35525	0	-0.27717	0	0	0	0	0	0	0.100085	0	-0.36288	0	0	0
1.665	0	0	0	1.34402	0	-0.276338	0	0	0	0	0	0	0.110352	0	-0.364555	0	0	0
1.67	0	0	0	1.32911	0	-0.27657	0	0	0	0	0	0	0.123362	0	-0.365617	0	0	0
1.675	0	0	0	1.31126	0	-0.277251	0	0	0	0	0	0	0.137032	0	-0.367802	0	0	0
1.68	0	0	0	1.29018	0	-0.278915	0	0	0	0	0	0	0.152106	0	-0.370169	0	0	0
1.685	0	0	0	1.26636	0	-0.280952	0	0	0	0	0	0	0.168646	0	-0.372211	0	0	0
1.69	0	0	0	1.24026	0	-0.283939	0	0	0	0	0	0	0.186188	0	-0.375411	0	0	0
1.695	-81.5392	88.5945	-11.8054	1.20062	-0	-0.285643	0	-3.47511	0	0	0	0	0.205412	0	-0.37812	0	0	0
